HIERARCHY
ROOT Hips
{
	OFFSET -0.001795 -0.223333 0.028219
	CHANNELS 6 Xposition Yposition Zposition Zrotation Yrotation Xrotation 
	JOINT LeftUpLeg
	{
		OFFSET 0.069520 -0.091406 -0.006815
		CHANNELS 3 Zrotation Yrotation Xrotation
		JOINT LeftLeg
		{
			OFFSET 0.034277 -0.375199 -0.004496
			CHANNELS 3 Zrotation Yrotation Xrotation
			JOINT LeftFoot
			{
				OFFSET -0.013596 -0.397961 -0.043693
				CHANNELS 3 Zrotation Yrotation Xrotation
				JOINT LeftToe
				{
					OFFSET 0.026358 -0.055791 0.119288
					CHANNELS 3 Zrotation Yrotation Xrotation
					End Site
					{
						OFFSET 0.000000 0.000000 0.000000
					}
				}
			}
		}
	}
	JOINT RightUpLeg
	{
		OFFSET -0.067670 -0.090522 -0.004320
		CHANNELS 3 Zrotation Yrotation Xrotation
		JOINT RightLeg
		{
			OFFSET -0.038290 -0.382569 -0.008850
			CHANNELS 3 Zrotation Yrotation Xrotation
			JOINT RightFoot
			{
				OFFSET 0.015774 -0.398415 -0.042312
				CHANNELS 3 Zrotation Yrotation Xrotation
				JOINT RightToe
				{
					OFFSET -0.025372 -0.048144 0.123348
					CHANNELS 3 Zrotation Yrotation Xrotation
					End Site
					{
						OFFSET 0.000000 0.000000 0.000000
					}
				}
			}
		}
	}
	JOINT Spine
	{
		OFFSET -0.002533 0.108963 -0.026696
		CHANNELS 3 Zrotation Yrotation Xrotation
		JOINT Spine1
		{
			OFFSET 0.005487 0.135180 0.001092
			CHANNELS 3 Zrotation Yrotation Xrotation
			JOINT Spine2
			{
				OFFSET 0.001457 0.052922 0.025425
				CHANNELS 3 Zrotation Yrotation Xrotation
				JOINT Neck
				{
					OFFSET -0.002778 0.213870 -0.042857
					CHANNELS 3 Zrotation Yrotation Xrotation
					JOINT Head
					{
						OFFSET 0.005152 0.064970 0.051349
						CHANNELS 3 Zrotation Yrotation Xrotation
						End Site
						{
							OFFSET 0.000000 0.000000 0.000000
						}
					}
				}
				JOINT LeftShoulder
				{
					OFFSET 0.078845 0.121749 -0.034090
					CHANNELS 3 Zrotation Yrotation Xrotation
					JOINT LeftArm
					{
						OFFSET 0.090977 0.030469 -0.008868
						CHANNELS 3 Zrotation Yrotation Xrotation
						JOINT LeftForeArm
						{
							OFFSET 0.259612 -0.012772 -0.027456
							CHANNELS 3 Zrotation Yrotation Xrotation
							JOINT LeftHand
							{
								OFFSET 0.249234 0.008986 -0.001171
								CHANNELS 3 Zrotation Yrotation Xrotation
								End Site
								{
									OFFSET 0.000000 0.000000 0.000000
								}
							}
						}
					}
				}
				JOINT RightShoulder
				{
					OFFSET -0.081759 0.118833 -0.038615
					CHANNELS 3 Zrotation Yrotation Xrotation
					JOINT RightArm
					{
						OFFSET -0.096012 0.032551 -0.009143
						CHANNELS 3 Zrotation Yrotation Xrotation
						JOINT RightForeArm
						{
							OFFSET -0.253742 -0.013329 -0.021401
							CHANNELS 3 Zrotation Yrotation Xrotation
							JOINT RightHand
							{
								OFFSET -0.255298 0.007772 -0.005559
								CHANNELS 3 Zrotation Yrotation Xrotation
								End Site
								{
									OFFSET 0.000000 0.000000 0.000000
								}
							}
						}
					}
				}
			}
		}
	}
}
MOTION
Frames: 16
Frame Time: 0.050000
0.000000 0.951556 0.000000 -0.539016 -2.633694 4.275829 4.339101 -0.404393 -6.190069 -1.779056 0.177191 1.500440 3.517947 9.368793 8.415220 0.000000 0.000000 0.000000 -2.318976 0.757972 -8.334720 -0.318342 0.283363 5.605581 -1.639425 -6.537855 5.918365 0.000000 0.000000 0.000000 3.802396 -0.450087 4.949312 -1.601316 0.771595 -4.378046 -1.644071 3.130702 8.813555 6.928058 -1.895535 -23.297881 0.000000 0.000000 0.000000 -15.394211 -8.898491 2.696344 -54.517219 -10.230573 -2.205384 -4.113790 -19.054294 1.380164 0.000000 0.000000 0.000000 16.759971 3.252778 0.695997 59.185969 9.578856 -1.402296 -0.814005 16.192290 0.504049 0.000000 0.000000 0.000000 
0.003035 0.951340 -0.001152 -1.148233 -2.557110 4.801206 4.653133 -0.420907 -6.657265 -1.780434 0.187306 0.853761 4.072499 10.145495 7.360924 0.000000 0.000000 0.000000 -1.566074 0.922195 -9.860295 -0.758579 0.398608 6.585511 -1.630163 -6.483490 5.814046 0.000000 0.000000 0.000000 4.135752 -0.534067 5.661510 -1.559925 0.758544 -5.584586 -1.484937 3.638068 9.338669 7.745167 -2.004427 -25.192406 0.000000 0.000000 0.000000 -14.597272 -8.437661 2.398427 -54.988192 -9.772240 -2.476465 -4.591853 -20.266916 1.542959 0.000000 0.000000 0.000000 15.960079 2.558921 0.487896 60.670672 9.011443 -1.705564 -0.521752 17.219536 0.597101 0.000000 0.000000 0.000000 
0.005974 0.951784 -0.001373 -1.007360 -2.482868 5.113034 4.388088 -0.507288 -8.089411 -2.213672 0.212961 3.010388 4.398854 10.709327 7.250327 0.000000 0.000000 0.000000 -1.220787 1.050144 -11.057182 -0.514603 0.438231 8.176266 -1.824621 -6.733660 5.319601 0.000000 0.000000 0.000000 3.859008 -0.516574 5.640812 -1.005465 0.535473 -6.149928 -1.794898 4.345083 9.697075 8.213391 -2.284436 -24.385832 0.000000 0.000000 0.000000 -13.435993 -8.022755 2.096800 -54.778000 -9.347195 -2.713431 -6.364954 -20.608181 1.859540 0.000000 0.000000 0.000000 15.558384 2.288690 0.539053 59.974463 8.020815 -2.228493 -0.781495 17.826714 0.607666 0.000000 0.000000 0.000000 
0.008580 0.952560 -0.000324 -1.147624 -2.594771 5.455376 4.631144 -0.569349 -9.652280 -2.594482 0.251122 5.189660 4.768623 11.203434 6.291593 0.000000 0.000000 0.000000 -1.028279 1.247070 -12.971738 -0.306049 0.503496 10.223789 -1.926497 -7.041297 5.514540 0.000000 0.000000 0.000000 3.785025 -0.572684 6.443165 -1.199016 0.612092 -6.025750 -1.082563 3.850199 9.218927 7.828935 -1.964508 -25.598246 0.000000 0.000000 0.000000 -11.742719 -6.836073 1.737577 -55.975638 -8.551505 -3.107881 -7.277097 -22.435631 2.230058 0.000000 0.000000 0.000000 13.314028 2.290955 0.457822 60.898263 7.787504 -2.245515 -0.727361 19.462697 0.660788 0.000000 0.000000 0.000000 
0.010654 0.952200 0.001792 -1.067016 -2.638976 5.133852 4.096668 -0.649954 -10.624722 -2.523229 0.222663 7.902743 5.108632 11.638804 5.141558 0.000000 0.000000 0.000000 -1.112785 1.342572 -14.029351 0.253775 0.538157 13.305150 -2.583131 -8.243160 4.779509 0.000000 0.000000 0.000000 3.860107 -0.670586 7.788564 -0.694058 0.414119 -6.701765 -1.587755 4.607635 9.844045 7.747700 -1.819636 -25.703004 0.000000 0.000000 0.000000 -10.291023 -6.966903 1.758626 -56.408000 -8.285740 -3.363195 -8.239901 -24.271573 2.589148 0.000000 0.000000 0.000000 11.921090 1.859255 0.442096 61.481937 8.013997 -2.125985 0.178174 20.154230 0.862400 0.000000 0.000000 0.000000 
0.012265 0.946482 0.004278 -1.306783 -2.631892 4.913616 4.488801 -0.700347 -12.398104 -3.509962 0.426767 12.607646 5.974365 12.782475 1.673493 0.000000 0.000000 0.000000 -1.025655 1.606199 -16.631624 0.993289 0.611966 18.977416 -3.124579 -8.646360 2.157302 0.000000 0.000000 0.000000 4.056238 -0.799986 9.349198 -0.859016 0.487198 -7.154337 -1.115464 4.392240 10.170121 7.333118 -1.443903 -27.190163 0.000000 0.000000 0.000000 -9.648819 -6.300113 1.554639 -56.669887 -7.016717 -4.016863 -9.202786 -26.818105 3.119836 0.000000 0.000000 0.000000 10.417028 1.652989 0.342541 62.247822 8.515190 -1.852346 0.966507 22.038591 1.092178 0.000000 0.000000 0.000000 
0.013443 0.933109 0.006354 -1.375852 -2.862453 4.479973 5.417146 -0.731271 -15.873188 -5.491510 1.089198 19.946795 6.901575 14.177476 -2.352037 0.000000 0.000000 0.000000 -1.196305 1.916556 -19.888692 1.824257 0.668365 25.997084 -3.809473 -9.144882 -1.519068 0.000000 0.000000 0.000000 4.072835 -0.952781 11.564762 -0.643875 0.402764 -7.526434 -1.372182 4.759074 10.087238 7.146976 -1.278684 -27.419884 0.000000 0.000000 0.000000 -9.068510 -5.754010 1.313384 -56.191280 -6.754127 -4.125399 -9.970633 -28.957142 3.549198 0.000000 0.000000 0.000000 9.887455 2.111155 0.606407 62.493604 9.794218 -1.126827 0.824759 23.965513 1.200828 0.000000 0.000000 0.000000 
0.014759 0.910191 0.007587 -1.306140 -3.243309 3.792877 6.612914 -0.675019 -21.087962 -8.510899 2.759515 31.290013 7.585777 15.179001 -7.110362 0.000000 0.000000 0.000000 -1.793249 2.358905 -25.060699 3.043312 0.650707 36.683207 -4.793378 -10.669470 -5.091052 0.000000 0.000000 0.000000 3.638320 -1.067985 14.357902 -0.631259 0.393055 -7.523162 -0.919005 4.539564 9.713386 6.883515 -1.013384 -28.867820 0.000000 0.000000 0.000000 -8.626075 -5.431621 1.260366 -56.251586 -6.097274 -4.403025 -9.701186 -33.379221 4.075588 0.000000 0.000000 0.000000 9.232298 2.803884 0.862475 62.570357 10.502813 -0.732406 2.023341 28.027660 1.708006 0.000000 0.000000 0.000000 
0.016246 0.875490 0.009141 -1.345928 -3.712441 3.216071 8.683438 -0.260072 -27.602894 -11.696959 5.647435 44.650449 8.420528 16.831384 -10.213235 0.000000 0.000000 0.000000 -2.781105 2.800006 -31.186705 5.043024 0.082484 48.968532 -5.924197 -13.104180 -8.486372 0.000000 0.000000 0.000000 3.066132 -1.172859 17.894628 -0.359413 0.289489 -8.267052 -0.670051 5.316048 8.768439 6.580320 -0.690239 -29.589627 0.000000 0.000000 0.000000 -8.106764 -5.592126 1.281756 -55.066333 -5.686663 -4.440811 -10.541736 -38.459261 4.930928 0.000000 0.000000 0.000000 9.211134 3.695299 1.314203 61.122748 11.027384 -0.382339 3.962461 34.089847 2.774412 0.000000 0.000000 0.000000 
0.017723 0.834883 0.012331 -1.040723 -3.729706 2.190849 9.412572 0.009462 -33.557842 -12.542843 7.902763 57.787092 8.802889 17.433722 -12.565585 0.000000 0.000000 0.000000 -4.069149 3.057266 -37.373476 7.220363 -1.243248 61.801141 -6.857981 -15.726854 -10.649620 0.000000 0.000000 0.000000 3.223314 -1.319048 20.239016 -0.928302 0.524761 -9.289562 -0.507629 5.582940 9.421736 7.629238 -1.047778 -30.540720 0.000000 0.000000 0.000000 -8.081250 -7.162421 1.919197 -54.253046 -6.144756 -4.243259 -10.261767 -46.386957 5.902627 0.000000 0.000000 0.000000 8.994011 3.908529 1.446770 59.557325 11.707850 -0.160636 9.140966 41.756150 5.570420 0.000000 0.000000 0.000000 
0.018587 0.793388 0.017709 -0.916235 -4.700902 0.601095 10.179575 0.467814 -36.142292 -12.196799 9.355945 66.727695 9.978563 20.386222 -14.238517 0.000000 0.000000 0.000000 -4.173261 3.615092 -41.852900 7.553610 -1.177375 73.084436 -7.374247 -17.455200 -10.646487 0.000000 0.000000 0.000000 2.922364 -1.291114 22.047385 -0.887528 0.486584 -9.013454 -0.801047 6.416663 8.573675 6.718944 -0.463329 -31.303062 0.000000 0.000000 0.000000 -7.682445 -7.407517 1.973605 -53.772364 -7.221431 -3.692619 -11.977012 -54.751571 7.840730 0.000000 0.000000 0.000000 8.960639 4.380953 1.683846 57.808133 13.585712 0.768201 15.419597 48.945283 9.702475 0.000000 0.000000 0.000000 
0.018423 0.758232 0.023590 -0.743958 -4.523127 -0.991125 9.415289 0.245790 -37.744762 -10.701201 8.988715 73.714920 10.837834 22.975588 -19.261674 0.000000 0.000000 0.000000 -4.628674 3.670038 -44.228549 8.315302 -2.130039 81.176524 -7.937218 -19.235494 -12.903163 0.000000 0.000000 0.000000 3.620144 -1.436203 22.364828 -1.232538 0.624087 -8.883027 -1.184924 5.850918 8.666213 6.908754 -0.431821 -32.750346 0.000000 0.000000 0.000000 -7.557723 -9.282513 2.788594 -52.979792 -11.161840 -1.922205 -12.581233 -63.222823 9.761694 0.000000 0.000000 0.000000 10.184555 6.462973 2.576805 54.079396 16.908568 2.007363 18.775206 57.738277 13.665286 0.000000 0.000000 0.000000 
0.016616 0.736552 0.029380 -0.752550 -4.493618 -2.469015 8.767408 0.021968 -37.085421 -9.834049 8.547069 76.729948 11.600017 25.952721 -23.221556 0.000000 0.000000 0.000000 -4.949319 3.583196 -44.669736 9.381800 -3.444699 85.451827 -8.406967 -20.913374 -14.685864 0.000000 0.000000 0.000000 4.060892 -1.479333 21.953147 -1.209902 0.614321 -8.449676 -1.382591 5.917610 8.047121 6.237026 -0.002487 -33.707363 0.000000 0.000000 0.000000 -8.600615 -11.408737 3.593655 -49.443935 -18.239216 1.177293 -16.447525 -74.760005 14.844033 0.000000 0.000000 0.000000 11.059291 8.877740 3.712695 48.971568 21.402202 3.480169 14.302661 71.447377 14.727713 0.000000 0.000000 0.000000 
0.012858 0.737773 0.035344 -1.120031 -5.364459 -2.400601 9.426604 0.351531 -36.133133 -9.906417 8.994234 76.238694 10.922620 23.532380 -23.003616 0.000000 0.000000 0.000000 -3.926574 4.091426 -44.369628 10.163542 -3.803779 84.669511 -9.069048 -23.326064 -14.958913 0.000000 0.000000 0.000000 4.203491 -1.365328 20.171108 -0.587912 0.353790 -8.798197 -1.911799 5.567618 7.470089 6.616123 -0.363528 -32.654864 0.000000 0.000000 0.000000 -5.898731 -12.705506 4.224720 -45.165551 -24.906966 3.519146 38.031778 -85.365985 -32.333690 0.000000 0.000000 0.000000 7.539208 11.669184 4.615383 44.723814 28.306859 5.766646 -44.510898 81.403324 -33.316905 0.000000 0.000000 0.000000 
0.007857 0.766923 0.043202 -1.979358 -5.505708 -1.422871 10.251801 0.557456 -33.999825 -10.118678 8.466515 70.883590 9.719061 19.480223 -21.341236 0.000000 0.000000 0.000000 -4.391863 3.634732 -41.759172 11.624538 -4.870300 78.404492 -9.059584 -23.011468 -12.856291 0.000000 0.000000 0.000000 4.068691 -1.195103 17.386528 -0.091141 0.183084 -10.221948 -1.833012 6.107248 6.972652 8.205290 -1.435176 -29.520443 0.000000 0.000000 0.000000 -1.849890 -13.964022 4.643136 -38.015340 -29.241991 4.028283 123.687836 -74.192829 -106.194931 0.000000 0.000000 0.000000 4.004882 12.754086 4.824329 33.943071 35.005375 5.850379 -92.500800 70.926162 -66.959596 0.000000 0.000000 0.000000 
0.002835 0.825065 0.055514 -2.067397 -5.216736 0.758418 9.919256 0.276777 -30.298009 -9.759468 6.607827 59.581101 7.744977 14.249685 -15.141667 0.000000 0.000000 0.000000 -5.194934 2.734887 -35.733037 12.315058 -4.735021 66.212161 -7.857221 -18.953252 -10.657055 0.000000 0.000000 0.000000 3.936766 -0.864508 11.723587 0.089582 0.095356 -8.911143 -1.657089 5.562775 4.444453 7.955463 -1.902756 -25.257361 0.000000 0.000000 0.000000 2.064565 -12.902672 4.284779 -29.278936 -30.602831 3.135088 121.015069 -57.361342 -84.699384 0.000000 0.000000 0.000000 -2.526716 11.373345 3.856595 23.361929 38.192959 4.139941 -93.912110 56.953803 -54.079881 0.000000 0.000000 0.000000 
